<svg width="16" height="16" viewBox="0 0 16 16" fill="none" xmlns="http://www.w3.org/2000/svg">
<path d="M6.00065 0.664062V1.9974H10.0007V0.664062H11.334V1.9974H14.0007C14.3689 1.9974 14.6673 2.29588 14.6673 2.66406V13.3307C14.6673 13.6989 14.3689 13.9974 14.0007 13.9974H2.00065C1.63246 13.9974 1.33398 13.6989 1.33398 13.3307V2.66406C1.33398 2.29588 1.63246 1.9974 2.00065 1.9974H4.66732V0.664062H6.00065ZM13.334 7.33073H2.66732V12.6641H13.334V7.33073ZM4.66732 3.33073H2.66732V5.9974H13.334V3.33073H11.334V4.66406H10.0007V3.33073H6.00065V4.66406H4.66732V3.33073Z" fill="#4D596A"/>
</svg>
