<svg width="21" height="19" viewBox="0 0 21 19" fill="none" xmlns="http://www.w3.org/2000/svg">
<path d="M2.2 0C0.991719 0 0 0.991719 0 2.2V12.76C0 13.9683 0.991719 14.96 2.2 14.96H4.00125C4.06141 15.4894 4.05453 15.9792 3.91875 16.39C3.75203 16.8953 3.44094 17.3198 2.86 17.6688C2.69672 17.7719 2.62109 17.9695 2.67094 18.1552C2.72078 18.3408 2.8875 18.4731 3.08 18.48C4.94656 18.48 7.08641 17.5055 8.1675 14.96H18.04C19.2483 14.96 20.24 13.9683 20.24 12.76V2.2C20.24 0.991719 19.2483 0 18.04 0H2.2ZM2.2 0.88H18.04C18.7687 0.88 19.36 1.47125 19.36 2.2V12.76C19.36 13.4887 18.7687 14.08 18.04 14.08H7.92C7.73609 14.08 7.57109 14.1952 7.5075 14.3687C6.82344 16.2353 5.60141 17.1239 4.33125 17.4487C4.50313 17.203 4.66641 16.9434 4.7575 16.665C4.98609 15.9706 4.96719 15.2109 4.82625 14.4375C4.78672 14.233 4.60969 14.0834 4.4 14.08H2.2C1.47125 14.08 0.88 13.4887 0.88 12.76V2.2C0.88 1.47125 1.47125 0.88 2.2 0.88Z" fill="#212529"/>
</svg>
